<svg id="SvgjsSvg1006" width="933.5" height="436" xmlns="http://www.w3.org/2000/svg" version="1.1" xmlns:xlink="http://www.w3.org/1999/xlink" xmlns:svgjs="http://svgjs.com/svgjs"><defs id="SvgjsDefs1007"></defs><g id="SvgjsG1008" transform="translate(25,162)"><path id="SvgjsPath1009" d="M 0 0L 106 0L 106 48L 0 48Z" stroke="rgba(50,50,50,1)" stroke-width="2" fill-opacity="1" fill="#ffffff"></path><g id="SvgjsG1010"><text id="SvgjsText1011" font-family="微软雅黑" text-anchor="middle" font-size="13px" width="86px" fill="#323232" font-weight="400" align="middle" anchor="middle" family="微软雅黑" size="13px" weight="400" font-style="" opacity="1" y="14.05" transform="rotate(0)"><tspan id="SvgjsTspan1012" dy="16" x="53"><tspan id="SvgjsTspan1013" style="text-decoration:;">字段索引</tspan></tspan></text></g></g><g id="SvgjsG1014" transform="translate(131,162)"><path id="SvgjsPath1015" d="M 0 0L 106 0L 106 48L 0 48Z" stroke="rgba(50,50,50,1)" stroke-width="2" fill-opacity="1" fill="#ffffff"></path><g id="SvgjsG1016"><text id="SvgjsText1017" font-family="微软雅黑" text-anchor="middle" font-size="13px" width="86px" fill="#323232" font-weight="400" align="middle" anchor="middle" family="微软雅黑" size="13px" weight="400" font-style="" opacity="1" y="14.05" transform="rotate(0)"><tspan id="SvgjsTspan1018" dy="16" x="53"><tspan id="SvgjsTspan1019" style="text-decoration:;">线路类型</tspan></tspan></text></g></g><g id="SvgjsG1020" transform="translate(236,162)"><path id="SvgjsPath1021" d="M 0 0L 106 0L 106 48L 0 48Z" stroke="rgba(50,50,50,1)" stroke-width="2" fill-opacity="1" fill="#ffffff"></path><g id="SvgjsG1022"><text id="SvgjsText1023" font-family="微软雅黑" text-anchor="middle" font-size="13px" width="86px" fill="#323232" font-weight="400" align="middle" anchor="middle" family="微软雅黑" size="13px" weight="400" font-style="" opacity="1" y="14.05" transform="rotate(0)"><tspan id="SvgjsTspan1024" dy="16" x="53"><tspan id="SvgjsTspan1025" style="text-decoration:;">字段内容</tspan></tspan></text></g></g><g id="SvgjsG1026" transform="matrix(-1.8369701987210297e-16,-1,1,-1.8369701987210297e-16,27.5,287)"><path id="SvgjsPath1027" d="M 54.5 0Q 49.05 0 49.05 9L 49.05 91.75Q 49.05 100.75 32.5 100.75Q 49.05 100.75 49.05 109.75L 49.05 192.5Q 49.05 201.5 54.5 201.5" stroke="rgba(50,50,50,1)" stroke-width="2" fill="none"></path><path id="SvgjsPath1028" d="M 0 0L 54.5 0L 54.5 201.5L 0 201.5Z" stroke="none" fill="none"></path><g id="SvgjsG1029"><text id="SvgjsText1030" font-family="微软雅黑" text-anchor="end" font-size="13px" width="28px" fill="#323232" font-weight="400" align="middle" anchor="end" family="微软雅黑" size="13px" weight="400" font-style="" opacity="1" y="90.8" transform="rotate(0)"></text></g></g><g id="SvgjsG1031" transform="translate(68.25,252)"><path id="SvgjsPath1032" d="M 0 0L 120 0L 120 40L 0 40Z" stroke="none" fill="none"></path><g id="SvgjsG1033"><text id="SvgjsText1034" font-family="微软雅黑" text-anchor="middle" font-size="13px" width="120px" fill="#323232" font-weight="400" align="middle" anchor="middle" family="微软雅黑" size="13px" weight="400" font-style="" opacity="1" y="10.05" transform="rotate(0)"><tspan id="SvgjsTspan1035" dy="16" x="60"><tspan id="SvgjsTspan1036" style="text-decoration:;">字段标签</tspan></tspan></text></g></g><g id="SvgjsG1037" transform="translate(368,162)"><path id="SvgjsPath1038" d="M 0 0L 106 0L 106 48L 0 48Z" stroke="rgba(50,50,50,1)" stroke-width="2" fill-opacity="1" fill="#ffffff"></path><g id="SvgjsG1039"><text id="SvgjsText1040" font-family="微软雅黑" text-anchor="middle" font-size="13px" width="86px" fill="#323232" font-weight="400" align="middle" anchor="middle" family="微软雅黑" size="13px" weight="400" font-style="" opacity="1" y="14.05" transform="rotate(0)"><tspan id="SvgjsTspan1041" dy="16" x="53"><tspan id="SvgjsTspan1042" style="text-decoration:;">字段索引</tspan></tspan></text></g></g><g id="SvgjsG1043" transform="translate(474,162)"><path id="SvgjsPath1044" d="M 0 0L 106 0L 106 48L 0 48Z" stroke="rgba(50,50,50,1)" stroke-width="2" fill-opacity="1" fill="#ffffff"></path><g id="SvgjsG1045"><text id="SvgjsText1046" font-family="微软雅黑" text-anchor="middle" font-size="13px" width="86px" fill="#323232" font-weight="400" align="middle" anchor="middle" family="微软雅黑" size="13px" weight="400" font-style="" opacity="1" y="14.05" transform="rotate(0)"><tspan id="SvgjsTspan1047" dy="16" x="53"><tspan id="SvgjsTspan1048" style="text-decoration:;">线路类型</tspan></tspan></text></g></g><g id="SvgjsG1049" transform="translate(580,162)"><path id="SvgjsPath1050" d="M 0 0L 106 0L 106 48L 0 48Z" stroke="rgba(50,50,50,1)" stroke-width="2" fill-opacity="1" fill="#ffffff"></path><g id="SvgjsG1051"><text id="SvgjsText1052" font-family="微软雅黑" text-anchor="middle" font-size="13px" width="86px" fill="#323232" font-weight="400" align="middle" anchor="middle" family="微软雅黑" size="13px" weight="400" font-style="" opacity="1" y="14.05" transform="rotate(0)"><tspan id="SvgjsTspan1053" dy="16" x="53"><tspan id="SvgjsTspan1054" style="text-decoration:;">字段内容</tspan></tspan></text></g></g><g id="SvgjsG1055" transform="matrix(-1.8369701987210297e-16,-1,1,-1.8369701987210297e-16,370.5,287)"><path id="SvgjsPath1056" d="M 54.5 0Q 49.05 0 49.05 9L 49.05 91.75Q 49.05 100.75 32.5 100.75Q 49.05 100.75 49.05 109.75L 49.05 192.5Q 49.05 201.5 54.5 201.5" stroke="rgba(50,50,50,1)" stroke-width="2" fill="none"></path><path id="SvgjsPath1057" d="M 0 0L 54.5 0L 54.5 201.5L 0 201.5Z" stroke="none" fill="none"></path><g id="SvgjsG1058"><text id="SvgjsText1059" font-family="微软雅黑" text-anchor="end" font-size="13px" width="28px" fill="#323232" font-weight="400" align="middle" anchor="end" family="微软雅黑" size="13px" weight="400" font-style="" opacity="1" y="90.8" transform="rotate(0)"></text></g></g><g id="SvgjsG1060" transform="translate(411.25,252)"><path id="SvgjsPath1061" d="M 0 0L 120 0L 120 40L 0 40Z" stroke="none" fill="none"></path><g id="SvgjsG1062"><text id="SvgjsText1063" font-family="微软雅黑" text-anchor="middle" font-size="13px" width="120px" fill="#323232" font-weight="400" align="middle" anchor="middle" family="微软雅黑" size="13px" weight="400" font-style="" opacity="1" y="10.05" transform="rotate(0)"><tspan id="SvgjsTspan1064" dy="16" x="60"><tspan id="SvgjsTspan1065" style="text-decoration:;">字段标签</tspan></tspan></text></g></g><g id="SvgjsG1066" transform="translate(719.25,166)"><path id="SvgjsPath1067" d="M 0 0L 52.75 0L 52.75 40L 0 40Z" stroke="none" fill="none"></path><g id="SvgjsG1068"><text id="SvgjsText1069" font-family="微软雅黑" text-anchor="middle" font-size="13px" width="53px" fill="#323232" font-weight="400" align="middle" anchor="middle" family="微软雅黑" size="13px" weight="400" font-style="" opacity="1" y="10.05" transform="rotate(0)"><tspan id="SvgjsTspan1070" dy="16" x="26.5"><tspan id="SvgjsTspan1071" style="text-decoration:;">...</tspan></tspan></text></g></g><g id="SvgjsG1072" transform="matrix(6.123233995736766e-17,1,-1,6.123233995736766e-17,341,24.999999999999993)"><path id="SvgjsPath1073" d="M 104 0Q 95 0 95 9L 95 148Q 95 157 82 157Q 95 157 95 166L 95 305Q 95 314 104 314" stroke="rgba(50,50,50,1)" stroke-width="2" fill="none"></path><path id="SvgjsPath1074" d="M 0 0L 104 0L 104 314L 0 314Z" stroke="none" fill="none"></path><g id="SvgjsG1075"><text id="SvgjsText1076" font-family="微软雅黑" text-anchor="end" font-size="13px" width="77px" fill="#323232" font-weight="400" align="middle" anchor="end" family="微软雅黑" size="13px" weight="400" font-style="" opacity="1" y="147.05" transform="rotate(0)"></text></g></g><g id="SvgjsG1077" transform="translate(124,51)"><path id="SvgjsPath1078" d="M 0 0L 120 0L 120 40L 0 40Z" stroke="none" fill="none"></path><g id="SvgjsG1079"><text id="SvgjsText1080" font-family="微软雅黑" text-anchor="middle" font-size="13px" width="120px" fill="#323232" font-weight="400" align="middle" anchor="middle" family="微软雅黑" size="13px" weight="400" font-style="" opacity="1" y="10.05" transform="rotate(0)"><tspan id="SvgjsTspan1081" dy="16" x="60"><tspan id="SvgjsTspan1082" style="text-decoration:;">字段编码</tspan></tspan></text></g></g><g id="SvgjsG1083" transform="translate(792,162)"><path id="SvgjsPath1084" d="M 0 0L 106 0L 106 48L 0 48Z" stroke="rgba(50,50,50,1)" stroke-width="2" fill-opacity="1" fill="#ffffff"></path><g id="SvgjsG1085"><text id="SvgjsText1086" font-family="微软雅黑" text-anchor="middle" font-size="13px" width="86px" fill="#323232" font-weight="400" align="middle" anchor="middle" family="微软雅黑" size="13px" weight="400" font-style="" opacity="1" y="14.05" transform="rotate(0)"><tspan id="SvgjsTspan1087" dy="16" x="53"><tspan id="SvgjsTspan1088" style="text-decoration:;">0</tspan></tspan></text></g></g><g id="SvgjsG1089" transform="matrix(-1.8369701987210297e-16,-1,1,-1.8369701987210297e-16,27.49999999999983,394.99999999999994)"><path id="SvgjsPath1090" d="M 62.99999999999969 0Q 56.69999999999972 0 56.69999999999972 9L 56.69999999999972 431.75Q 56.69999999999972 440.75 40.99999999999969 440.75Q 56.69999999999972 440.75 56.69999999999972 449.75L 56.69999999999972 872.5Q 56.69999999999972 881.5 62.99999999999969 881.5" stroke="rgba(50,50,50,1)" stroke-width="2" fill="none"></path><path id="SvgjsPath1091" d="M 0 0L 62.99999999999969 0L 62.99999999999969 881.5L 0 881.5Z" stroke="none" fill="none"></path><g id="SvgjsG1092"><text id="SvgjsText1093" font-family="微软雅黑" text-anchor="end" font-size="13px" width="36px" fill="#323232" font-weight="400" align="middle" anchor="end" family="微软雅黑" size="13px" weight="400" font-style="" opacity="1" y="430.8" transform="rotate(0)"></text></g></g><g id="SvgjsG1094" transform="translate(408.25,371)"><path id="SvgjsPath1095" d="M 0 0L 120 0L 120 40L 0 40Z" stroke="none" fill="none"></path><g id="SvgjsG1096"><text id="SvgjsText1097" font-family="微软雅黑" text-anchor="middle" font-size="13px" width="120px" fill="#323232" font-weight="400" align="middle" anchor="middle" family="微软雅黑" size="13px" weight="400" font-style="" opacity="1" y="10.05" transform="rotate(0)"><tspan id="SvgjsTspan1098" dy="16" x="60"><tspan id="SvgjsTspan1099" style="text-decoration:;">消息编码</tspan></tspan></text></g></g></svg>